<svg xmlns="http://www.w3.org/2000/svg" xmlns:xlink="http://www.w3.org/1999/xlink" version="1.1" x="0px" y="0px" viewBox="0 0 100 125" enable-background="new 0 0 100 100" xml:space="preserve"><g><path d="M20.964,42.47h2.743c0.641-5.044,5.045-8.752,10.124-8.524c0.066-0.479,0.151-0.957,0.257-1.43   c2.069-9.272,11.264-15.111,20.537-13.042c9.271,2.069,15.11,11.265,13.041,20.536c2.176-0.146,4.287,0.771,5.667,2.46h3.23   c-1.183-2.345-3.286-4.092-5.808-4.823c0.764-10.98-7.518-20.5-18.496-21.263c-9.607-0.669-18.317,5.629-20.694,14.962   C25.899,32.184,21.528,36.77,20.964,42.47z"/></g><g><path d="M85.655,73.915c-0.092,0.141-0.187,0.279-0.285,0.414c-3.552,4.943-10.438,6.066-15.378,2.516   c-6.515-4.686-15.293-4.686-21.809,0c-3.843,2.762-9.021,2.762-12.865,0c-7.018-5.047-16.58-4.619-23.119,1.033   c-0.8,0.691-0.888,1.902-0.196,2.701c0.692,0.801,1.901,0.889,2.701,0.197c5.198-4.494,12.8-4.834,18.378-0.824   c5.179,3.725,12.158,3.725,17.337,0c5.18-3.723,12.158-3.723,17.336,0c6.658,4.789,15.938,3.271,20.725-3.387   c0.131-0.184,0.26-0.369,0.383-0.559c0.578-0.887,0.328-2.072-0.559-2.65S86.232,73.028,85.655,73.915z"/></g><g><path d="M85.655,61.376c-0.092,0.141-0.187,0.277-0.285,0.416c-3.552,4.939-10.438,6.064-15.378,2.512   c-6.515-4.684-15.293-4.684-21.809,0c-3.843,2.764-9.021,2.764-12.865,0c-7.018-5.045-16.58-4.617-23.119,1.035   c-0.8,0.691-0.888,1.9-0.196,2.701c0.692,0.799,1.901,0.889,2.701,0.195c5.198-4.492,12.8-4.834,18.378-0.822   c5.179,3.725,12.158,3.725,17.337,0c5.18-3.723,12.158-3.723,17.336,0c6.658,4.787,15.938,3.271,20.725-3.387   c0.131-0.184,0.26-0.371,0.383-0.561c0.578-0.885,0.328-2.072-0.559-2.648C87.418,60.239,86.232,60.489,85.655,61.376z"/></g><g><path d="M85.655,48.95c-0.092,0.141-0.187,0.279-0.285,0.416c-3.552,4.939-10.438,6.066-15.378,2.513   c-6.515-4.685-15.293-4.685-21.809,0c-3.843,2.763-9.021,2.763-12.865,0c-7.018-5.046-16.58-4.618-23.119,1.034   c-0.8,0.692-0.888,1.901-0.196,2.701c0.692,0.8,1.901,0.889,2.701,0.197c5.198-4.494,12.8-4.834,18.378-0.823   c5.179,3.724,12.158,3.724,17.337,0c5.18-3.724,12.158-3.724,17.336,0c6.658,4.788,15.938,3.271,20.725-3.387   c0.131-0.185,0.26-0.37,0.383-0.56c0.578-0.887,0.328-2.074-0.559-2.65C87.418,47.813,86.232,48.063,85.655,48.95z"/></g><text x="0" y="115" fill="#000000" font-size="5px" font-weight="bold" font-family="'Helvetica Neue', Helvetica, Arial-Unicode, Arial, Sans-serif">Created by Aldric Rodríguez</text><text x="0" y="120" fill="#ffffff" font-size="5px" font-weight="bold" font-family="'Helvetica Neue', Helvetica, Arial-Unicode, Arial, Sans-serif">from the Noun Project</text></svg>